HIERARCHY
ROOT Hips
{
	OFFSET 0.00000 0.00000 0.00000
	CHANNELS 6 Xposition Yposition Zposition Zrotation Yrotation Xrotation 
	JOINT LHipJoint
	{
		OFFSET 0 0 0
		CHANNELS 3 Zrotation Yrotation Xrotation
		JOINT LeftUpLeg
		{
			OFFSET 3.13874 -1.57224 1.49786
			CHANNELS 3 Zrotation Yrotation Xrotation
			JOINT LeftLeg
			{
				OFFSET 2.10955 -5.79594 0.00000
				CHANNELS 3 Zrotation Yrotation Xrotation
				JOINT LeftFoot
				{
					OFFSET 2.41843 -6.64458 0.00000
					CHANNELS 3 Zrotation Yrotation Xrotation
					JOINT LeftToeBase
					{
						OFFSET 0.04713 -0.12948 1.66229
						CHANNELS 3 Zrotation Yrotation Xrotation
						End Site
						{
							OFFSET 0.00000 -0.00000 0.85167
						}
					}
				}
			}
		}
	}
	JOINT RHipJoint
	{
		OFFSET 0 0 0
		CHANNELS 3 Zrotation Yrotation Xrotation
		JOINT RightUpLeg
		{
			OFFSET -3.13988 -1.57224 1.49786
			CHANNELS 3 Zrotation Yrotation Xrotation
			JOINT RightLeg
			{
				OFFSET -2.15006 -5.90725 0.00000
				CHANNELS 3 Zrotation Yrotation Xrotation
				JOINT RightFoot
				{
					OFFSET -2.34496 -6.44273 0.00000
					CHANNELS 3 Zrotation Yrotation Xrotation
					JOINT RightToeBase
					{
						OFFSET -0.08699 -0.23900 1.55223
						CHANNELS 3 Zrotation Yrotation Xrotation
						End Site
						{
							OFFSET -0.00000 -0.00000 0.80281
						}
					}
				}
			}
		}
	}
	JOINT LowerBack
	{
		OFFSET 0 0 0
		CHANNELS 3 Zrotation Yrotation Xrotation
		JOINT Spine
		{
			OFFSET 0.01292 1.96517 -0.16495
			CHANNELS 3 Zrotation Yrotation Xrotation
			JOINT Spine1
			{
				OFFSET 0.02122 1.88666 0.19706
				CHANNELS 3 Zrotation Yrotation Xrotation
				JOINT Neck
				{
					OFFSET 0 0 0
					CHANNELS 3 Zrotation Yrotation Xrotation
					JOINT Neck1
					{
						OFFSET -0.01683 1.81591 0.07903
						CHANNELS 3 Zrotation Yrotation Xrotation
						JOINT Head
						{
							OFFSET 0.00815 1.74013 -0.47700
							CHANNELS 3 Zrotation Yrotation Xrotation
							End Site
							{
								OFFSET -0.00204 1.83225 -0.16933
							}
						}
					}
				}
				JOINT LeftShoulder
				{
					OFFSET 0 0 0
					CHANNELS 3 Zrotation Yrotation Xrotation
					JOINT LeftArm
					{
						OFFSET 3.38482 1.41533 0.19802
						CHANNELS 3 Zrotation Yrotation Xrotation
						JOINT LeftForeArm
						{
							OFFSET 4.32712 -0.00000 0.00000
							CHANNELS 3 Zrotation Yrotation Xrotation
							JOINT LeftHand
							{
								OFFSET 3.28587 -0.00000 -0.00000
								CHANNELS 3 Zrotation Yrotation Xrotation
								JOINT LeftFingerBase
								{
									OFFSET 0 0 0
									CHANNELS 3 Zrotation Yrotation Xrotation
									JOINT LeftHandIndex1
									{
										OFFSET 0.43316 -0.00000 -0.00000
										CHANNELS 3 Zrotation Yrotation Xrotation
										End Site
										{
											OFFSET 0.34922 -0.00000 -0.00000
										}
									}
								}
								JOINT LThumb
								{
									OFFSET 0 0 0
									CHANNELS 3 Zrotation Yrotation Xrotation
									End Site
									{
										OFFSET 0.35456 -0.00000 0.35456
									}
								}
							}
						}
					}
				}
				JOINT RightShoulder
				{
					OFFSET 0 0 0
					CHANNELS 3 Zrotation Yrotation Xrotation
					JOINT RightArm
					{
						OFFSET -3.09725 1.62858 -0.14144
						CHANNELS 3 Zrotation Yrotation Xrotation
						JOINT RightForeArm
						{
							OFFSET -4.29104 -0.00000 0.00000
							CHANNELS 3 Zrotation Yrotation Xrotation
							JOINT RightHand
							{
								OFFSET -3.22720 -0.00000 -0.00000
								CHANNELS 3 Zrotation Yrotation Xrotation
								JOINT RightFingerBase
								{
									OFFSET 0 0 0
									CHANNELS 3 Zrotation Yrotation Xrotation
									JOINT RightHandIndex1
									{
										OFFSET -0.54362 -0.00000 -0.00000
										CHANNELS 3 Zrotation Yrotation Xrotation
										End Site
										{
											OFFSET -0.43828 -0.00000 -0.00000
										}
									}
								}
								JOINT RThumb
								{
									OFFSET 0 0 0
									CHANNELS 3 Zrotation Yrotation Xrotation
									End Site
									{
										OFFSET -0.44497 -0.00000 0.44497
									}
								}
							}
						}
					}
				}
			}
		}
	}
}
MOTION
Frames: 8
Frame Time: 0.0444444
0.00 0.00 0.00 0 0 0 0 0 0 -21 0 0 0 0 0 0 0 0 0 0 0 0 0 0 21 0 0 0 0 0 0 0 0 0 0 0 0 0 0 0 0 0 0 0 0 0 0 -16 0 0 21 0 0 11 0 0 0 -8 0 0 0 0 0 0 0 0 0 0 0 0 0 0 0 0 0 0 0 0 8 0 0 0 0 0 0 0 0 0 0 0 0 0 0 0 0 0
0.00 0.00 0.00 -177.0330 -7.6283 -168.9680 0.0000 0.0000 0.0000 -24.7037 -25.7156 -2.1928 0.3789 3.9532 10.9451 0.9119 -12.3852 -17.9222 1.0238 -6.4368 -18.0571 0.0000 0.0000 0.0000 35.0633 16.7523 1.6150 -0.0021 -0.2961 0.8137 -1.6488 -15.8647 -34.3639 -0.0039 0.4046 -1.1118 2.0173 2.4471 8.9495 0.4221 3.1674 -9.6022 -1.2891 1.0346 -15.6672 0.4060 0.4030 -18.2624 -0.5965 -1.4191 33.5410 -0.7656 -1.3977 14.6391 0.0000 0.0000 0.0000 -80.3172 22.6383 19.5120 19.0341 -29.4610 -5.0476 -0.0000 -0.0000 3.4988 30.7417 29.7115 16.4241 -7.1250 0.0000 -0.0000 -0.3189 63.5618 -0.1435 0.0000 0.0000 0.0000 71.9749 -24.8425 47.2218 -18.8363 29.2147 -4.9507 0.0000 0.0000 1.7857 -26.4611 -16.6397 8.1116 7.1250 -0.0000 -0.0000 1.3302 -48.4364 -0.1128
0.00 0.00 0.00 -177.5910 -7.1892 -167.1140 0.0000 0.0000 0.0000 -22.8082 -23.4713 -13.5925 1.7307 8.2811 23.5711 0.1174 -18.2474 -13.8757 1.1451 -6.7952 -19.1099 0.0000 0.0000 0.0000 32.4286 10.6662 -13.5405 -0.9294 -6.1412 17.1948 -2.1108 -5.3622 -29.7754 -0.2932 3.4817 -9.6228 1.4806 2.0182 10.6062 0.9110 2.7001 -8.9626 -0.3985 0.9568 -16.0274 -0.0253 -0.3189 -20.0636 -0.3392 -1.9585 31.7455 -0.6315 -1.4758 14.2352 -0.0000 -0.0000 0.0000 -82.4988 22.7944 20.8393 20.5122 -31.2545 -5.7948 -0.0000 -0.0000 3.9100 30.4242 29.6274 16.1890 -7.1250 0.0000 -0.0000 -0.6844 63.3845 -0.3053 -0.0000 -0.0000 0.0000 71.6663 -25.1911 48.1211 -19.2868 29.7735 -5.1725 0.0000 -0.0000 -0.3060 -26.5750 -13.9817 6.8913 7.1250 -0.0000 -0.0000 0.8151 -45.5354 -0.0108
0.00 0.00 0.00 -178.9080 -4.1496 -164.9340 0.0000 0.0000 0.0000 -22.8790 -24.5576 -28.3195 5.7716 14.2033 44.0579 -0.7034 -26.6264 -14.1503 0.6074 -4.9885 -13.8757 0.0000 0.0000 0.0000 29.8449 15.2096 -26.6215 -4.0414 -12.2153 36.4978 -2.5850 0.7477 -30.2557 -0.2380 3.1394 -8.6670 0.6587 1.4578 13.8522 1.3006 1.9798 -8.5968 0.6098 0.7729 -17.7591 -0.4668 -1.6772 -22.7015 -0.7989 -3.1558 29.8261 -0.9248 -1.9434 13.9602 -0.0000 -0.0000 0.0000 -82.7681 20.6686 26.1009 24.0840 -35.2529 -7.7550 -0.0000 -0.0000 5.9605 30.1100 31.0666 16.6600 -7.1250 0.0000 -0.0000 -1.7920 64.8252 -0.8596 -0.0000 -0.0000 0.0000 71.3104 -25.2039 47.7195 -19.0952 29.5368 -5.0777 0.0000 0.0000 0.3091 -26.3339 -13.3701 6.5294 7.1250 -0.0000 -0.0000 0.9604 -44.8307 0.0040
0.00 0.00 0.00 -179.3830 20.4231 -165.3260 0.0000 0.0000 0.0000 -24.7912 -1.4011 -30.6065 5.7614 14.1931 44.0164 -0.7141 -24.3772 -11.8987 0.0094 -0.6264 -1.7214 0.0000 0.0000 0.0000 29.8754 22.7619 -27.2032 -5.3339 -13.7502 42.2460 -0.9618 7.5839 -17.5386 -0.0000 -0.0207 0.0568 -1.5120 -0.8615 13.8099 1.5485 -0.8008 -9.9743 2.8503 0.2058 -19.4475 -1.9580 -3.3209 -23.8411 2.9000 -4.1435 31.2705 0.8305 -1.1756 15.0024 0.0000 0.0000 0.0000 -75.0694 14.6984 38.3781 48.8153 -52.5064 -25.2311 -0.0000 -0.0000 3.6981 33.4559 28.1378 17.3080 -7.1250 0.0000 -0.0000 3.7446 62.6018 1.6026 0.0000 0.0000 0.0000 65.3417 -29.0925 53.3806 -31.4938 42.1399 -12.3999 0.0000 0.0000 3.3291 -22.8968 -16.2507 6.7406 7.1250 -0.0000 -0.0000 4.6808 -47.4832 -0.2874
0.00 0.00 0.00 -179.8150 30.2914 -168.4540 0.0000 0.0000 0.0000 -25.2699 2.8834 -17.0959 2.4143 9.6804 27.9479 0.7803 -13.6126 -17.2135 0.0957 -1.9955 -5.4932 0.0000 0.0000 0.0000 30.5939 14.7314 -16.9054 -2.1451 -9.1620 26.3034 0.0394 3.9957 -0.5562 -0.0118 0.7023 -1.9299 -1.6424 -0.6164 11.9988 0.5281 -0.5889 -10.4723 1.6316 0.2204 -18.8855 -0.1483 -2.8288 -20.5586 2.6930 -3.5432 34.9477 0.6828 -0.4501 15.9299 0.0000 -0.0000 0.0000 -71.7212 17.2994 39.5531 53.7522 -54.4011 -29.1987 -0.0000 -0.0000 7.3163 36.3396 24.7025 17.0889 -7.1250 0.0000 -0.0000 8.1001 59.5262 2.8848 0.0000 -0.0000 0.0000 65.2107 -31.0502 57.3925 -35.2673 45.0020 -15.0020 0.0000 0.0000 2.0946 -27.6052 -15.8317 8.1187 7.1250 -0.0000 -0.0000 0.0919 -47.7242 -0.0062
0.00 0.00 0.00 -178.5220 40.1168 -170.2670 0.0000 0.0000 0.0000 -26.4287 -4.5248 -3.8727 0.8346 5.8281 16.2863 3.0772 -20.5300 -32.7924 0.7285 -5.4536 -15.2069 0.0000 0.0000 0.0000 31.8811 12.0025 -4.5841 -0.1939 -2.8359 7.8221 -0.9093 -14.0135 18.3743 -0.4202 -4.1608 11.5294 -0.5444 0.1361 9.7438 0.1937 0.6772 -10.7580 0.2880 0.6214 -17.7609 0.9741 -2.7846 -17.0718 3.0718 -3.3152 38.4212 0.8587 0.1808 16.8475 0.0000 0.0000 0.0000 -70.1171 19.8150 40.0479 51.9938 -53.7686 -27.7745 -0.0000 -0.0000 7.3298 38.7009 23.5285 17.7361 -7.1250 0.0000 -0.0000 11.1194 58.7914 3.7783 0.0000 0.0000 0.0000 67.8411 -30.2490 57.4033 -33.0553 43.3725 -13.4600 0.0000 -0.0000 -1.8419 -26.6139 -17.0004 8.3346 7.1250 -0.0000 -0.0000 1.2445 -48.8550 -0.1183
0.00 0.00 0.00 -176.9040 46.5261 -169.4910 0.0000 0.0000 0.0000 -27.5100 -13.0145 2.0118 0.5783 4.8696 13.5369 5.9599 -17.0058 -44.8767 2.0565 -8.9827 -25.7413 0.0000 0.0000 0.0000 33.8083 15.2822 2.6538 -0.0095 0.6291 -1.7289 2.5949 -35.2379 11.2597 -0.4232 -4.1753 11.5703 -0.3124 0.5723 7.0792 0.6840 1.4231 -10.8267 0.5806 0.9969 -16.0948 2.2898 -2.4690 -15.9542 2.4033 -2.7911 39.7870 0.4802 0.6031 17.2553 0.0000 -0.0000 0.0000 -70.1965 21.2643 39.3984 48.5376 -52.3884 -25.0109 -0.0000 -0.0000 6.2256 38.8702 21.6732 16.5772 -7.1250 0.0000 -0.0000 11.3470 56.6596 3.2723 0.0000 -0.0000 0.0000 68.6908 -28.7113 57.7665 -31.0079 41.7418 -12.0751 0.0000 -0.0000 -2.0685 -26.5050 -17.8565 8.6941 7.1250 -0.0000 -0.0000 1.5106 -49.7722 -0.1778
